<svg xmlns="http://www.w3.org/2000/svg" width="213.954" height="188.02" viewBox="0 0 213.954 188.02"><defs><style>.a{fill:#0b70a5;}.b{fill:#3f3d56;}.c{fill:#fff;}.d{fill:#e6e6e6;}</style></defs><path class="a" d="M534.886,596.86c-.374.522-.751,1.041-1.125,1.556a6.418,6.418,0,0,1-3.654,1.133H329.12a6.447,6.447,0,0,1-3.513-1.037c-.347-.458-.69-.919-1.037-1.381l.347-.191,101.748-56.4a6.109,6.109,0,0,1,5.9-.008L534.542,596.67Z" transform="translate(-322.636 -411.529)"/><path class="b" d="M526.971,290.587l-88.182-50.926a24.417,24.417,0,0,0-24.4-.012l-88.4,50.938a6.493,6.493,0,0,0-6.483,6.483V405.382a6.491,6.491,0,0,0,6.483,6.483H526.971a6.494,6.494,0,0,0,6.483-6.483V297.071A6.493,6.493,0,0,0,526.971,290.587Zm5.721,114.8a5.735,5.735,0,0,1-5.721,5.721H325.983a5.731,5.731,0,0,1-5.721-5.721V297.071a5.728,5.728,0,0,1,5.721-5.721l88.4-50.938a24.417,24.417,0,0,1,24.4.012l88.182,50.926a5.728,5.728,0,0,1,5.721,5.721Z" transform="translate(-319.5 -223.846)"/><path class="c" d="M481.649,331.831a5.858,5.858,0,0,1-1.951-.327l-.115-.041-.023-.256q-.108.053-.217.1l-.077.034-.077-.034c-.161-.071-.32-.15-.474-.237L408.5,291.615v-80.56A7.063,7.063,0,0,1,415.556,204H547.513a7.063,7.063,0,0,1,7.056,7.056v80.663l-.1.055-69.888,39.3a6.009,6.009,0,0,1-2.935.761Z" transform="translate(-374.557 -203.809)"/><path class="b" d="M481.339,331.712a6.047,6.047,0,0,1-2.014-.338l-.231-.081-.01-.109-.129.056-.153-.067c-.166-.073-.332-.156-.491-.246L408,291.418V210.746a7.254,7.254,0,0,1,7.246-7.246H547.2a7.254,7.254,0,0,1,7.246,7.246v80.774l-70.082,39.407A6.2,6.2,0,0,1,481.339,331.712Zm-1.531-.983a5.527,5.527,0,0,0,4.185-.467l69.693-39.188V210.746a6.491,6.491,0,0,0-6.483-6.483H415.246a6.491,6.491,0,0,0-6.483,6.483v80.225l4.573,2.568,65.349,36.723q.133.075.271.141.137-.066.27-.141l.514-.289Z" transform="translate(-374.248 -203.5)"/><path class="b" d="M534.284,384.619l-27.677,15.56-4.767,2.681-69.888,39.3a5.814,5.814,0,0,1-2.841.736,5.686,5.686,0,0,1-1.888-.316,4.6,4.6,0,0,1-.5-.191q-.234-.1-.458-.229L360.92,405.435l-4.767-2.677-32.387-18.2a.386.386,0,0,1-.145-.522.381.381,0,0,1,.519-.145l32.013,17.99,4.767,2.677,65.723,36.933a4.98,4.98,0,0,0,.679.317c.1.038.2.072.305.1a5.059,5.059,0,0,0,3.951-.42l70.262-39.5,4.767-2.681,27.3-15.351a.381.381,0,0,1,.374.664Z" transform="translate(-322.019 -315.063)"/><path class="a" d="M461.3,259.6H450.626a3.051,3.051,0,0,1,0-6.1H461.3a3.051,3.051,0,0,1,0,6.1Z" transform="translate(-398.73 -234.431)"/><path class="d" d="M473.89,286.6H450.626a3.051,3.051,0,1,1,0-6.1H473.89a3.051,3.051,0,0,1,0,6.1Z" transform="translate(-398.73 -251.134)"/><path class="a" d="M575.03,358.6H509.051a3.051,3.051,0,1,1,0-6.1H575.03a3.051,3.051,0,1,1,0,6.1Z" transform="translate(-434.873 -295.674)"/><path class="d" d="M570.615,389.6H492.051a3.051,3.051,0,1,1,0-6.1h78.564a3.051,3.051,0,1,1,0,6.1Z" transform="translate(-424.356 -314.852)"/><path class="d" d="M570.615,419.6H492.051a3.051,3.051,0,1,1,0-6.1h78.564a3.051,3.051,0,1,1,0,6.1Z" transform="translate(-424.356 -333.41)"/></svg>