<svg xmlns="http://www.w3.org/2000/svg" xmlns:xlink="http://www.w3.org/1999/xlink" width="340.26" height="234.891" viewBox="0 0 340.26 234.891"><defs><style>.a,.b{fill:#0b70a5;}.a,.n,.p{opacity:0.1;}.c{fill:#444053;}.d{fill:#34353a;}.e{fill:#fff;}.f{fill:#fa5959;}.f,.g,.h{opacity:0.8;}.g{fill:#fed253;}.h{fill:#8ccf4d;}.i{opacity:0.05;}.j{fill:url(#a);}.k{fill:#8f6d6d;}.l{fill:#3f3d56;}.m{fill:#fbbebe;}.o{fill:#33313f;}</style><linearGradient id="a" y1="0.5" x2="1" y2="0.5" gradientUnits="objectBoundingBox"><stop offset="0" stop-color="gray" stop-opacity="0.251"/><stop offset="0.54" stop-color="gray" stop-opacity="0.122"/><stop offset="1" stop-color="gray" stop-opacity="0.102"/></linearGradient></defs><g transform="translate(0 0.006)"><path class="a" d="M209.37,79.437c-21.81.029-42.8-6.154-62.883-13.022S106.482,51.856,85.077,48.6c-13.766-2.095-29.42-1.9-40.18,5.7C34.539,61.619,31.54,73.73,30.092,84.92,29,93.337,28.5,102.172,32.578,109.872c2.83,5.345,7.674,9.751,11.087,14.845,11.916,17.722,4.75,40.361-6.83,58.495-5.43,8.508-11.791,16.663-15.9,25.659s-5.789,19.2-1.6,28.075c4.149,8.8,13.521,15.187,23.578,19.549,20.424,8.876,44.2,10.778,67.344,11.511,51.224,1.625,102.547-1.689,153.733-5,18.942-1.225,37.969-2.46,56.52-6.01,10.3-1.969,20.906-4.893,28.209-11.3,9.27-8.135,11.166-21.416,4.42-30.963-11.312-16.013-41.14-19.032-49.251-36.358-4.473-9.538-.616-20.477,5.065-29.671,12.185-19.727,33.157-37.4,33.51-59.461.242-15.152-10.664-29.933-26.954-36.519-17.075-6.9-40.355-5.124-52.318,7.732C250.893,73.7,228.627,79.417,209.37,79.437Z" transform="translate(-16.91 -47.46)"/><path class="b" d="M992.11,689.7s-3.586-2.366-7.14-.683c0,0,1.094,2.107,5.593,1.908Z" transform="translate(-702.515 -501.4)"/><path class="b" d="M1005.23,693.25s1.091,4.155-1.646,6.982c0,0-1.646-1.713,0-5.908Z" transform="translate(-715.18 -504.829)"/><path class="b" d="M1006.266,673.271s-.266-3.533-8.246-2.36a3.806,3.806,0,0,0,2.763,3.358C1003.584,675.349,1004.868,674.438,1006.266,673.271Z" transform="translate(-711.757 -488.839)"/><path class="b" d="M1022.321,679.5s3.373,1.083.365,8.567a3.817,3.817,0,0,1-2.626-3.475C1019.66,681.612,1020.844,680.585,1022.321,679.5Z" transform="translate(-727.31 -495.091)"/><path class="b" d="M1024.727,649.546s.458-5.815-7.7-5.22c0,0-.583,5.252,6.258,6.617Z" transform="translate(-725.212 -470.15)"/><path class="b" d="M1039.41,627.7s-1.118-6.591-9.27-4.628c0,0-.029,5.7,7.939,6.2Z" transform="translate(-734.505 -454.869)"/><path class="b" d="M1051.26,604.769s-1.873-6.419-9.949-4.5c0,0,1.923,5.774,9.413,5.684Z" transform="translate(-742.416 -438.725)"/><path class="b" d="M1064.859,581.605s-1.829-6.661-9.629-4.668c0,0,2.6,6.329,9.112,5.795Z" transform="translate(-752.275 -422.19)"/><path class="b" d="M1075.427,556.231s-1.406-8.146-8.677-6.343c0,0,2.112,7.411,8.143,7.531Z" transform="translate(-760.433 -403.112)"/><path class="b" d="M1082.285,530.979s-1.689-8.211-9.045-5.836c0,0,2.883,7.761,8.523,6.959Z" transform="translate(-765.03 -385.466)"/><path class="b" d="M1088.688,502.521s-2.681-8.213-8.368-7.992c0,0,2.74,8.674,7.893,9.629Z" transform="translate(-770.044 -364.087)"/><path class="b" d="M1093.765,476s-2.918-9.885-7.545-9.124c0,0,2.019,7.557,7.382,10.664Z" transform="translate(-774.223 -344.477)"/><path class="b" d="M1096.114,449.207s-2.737-8.237-7.294-8.566c0,0,1.862,8.105,7.2,10.708Z" transform="translate(-776.064 -325.924)"/><path class="b" d="M1100.129,423.172s-3.411-8.246-6.419-8.432c0,0,1.482,8.12,6.127,9.786Z" transform="translate(-779.527 -307.581)"/><path class="b" d="M1104.592,395.579s-2.1-8.955-5.112-9.7c0,0,.411,7.326,4.808,10.37Z" transform="translate(-783.614 -287.142)"/><path class="b" d="M1109.618,367.028s-2.206-7.14-4.648-8.228c0,0,.481,8.418,4.085,9.973Z" transform="translate(-787.502 -267.963)"/><path class="b" d="M1119.673,335.447l.444-12.587s-4.566,9.489-.773,14.8Z" transform="translate(-796.615 -242.509)"/><path class="b" d="M1131.9,299.534s3.288-9.191,4.085-9.7c0,0-6.448,5.964-5.818,13.635Z" transform="translate(-805.315 -219.117)"/><path class="b" d="M1040.992,662.125s5.783-.756,5.611,7.417c0,0-5.226.852-6.932-5.908Z" transform="translate(-741.255 -482.773)"/><path class="b" d="M1059.613,639.06s6.682-.02,6.127,8.345c0,0-5.611,1-7.461-6.763Z" transform="translate(-754.435 -466.45)"/><path class="b" d="M1074.327,617.094s6.066-2.845,9.947,4.5c0,0-5.6,2.369-10.483-3.312Z" transform="translate(-765.419 -450.51)"/><path class="b" d="M1087.443,592.512s6.212-3.026,9.859,4.146c0,0-6.472,2.229-10.373-3.011Z" transform="translate(-774.725 -433.035)"/><path class="b" d="M1095.554,566.756s5.979-5.71,10.749.064c0,0-6.107,4.7-11.023,1.208Z" transform="translate(-780.639 -413.459)"/><path class="b" d="M1102.556,539.413s6.014-5.835,10.746.268c0,0-6.749,4.794-10.962.957Z" transform="translate(-785.639 -394.096)"/><path class="b" d="M1106.93,506.8s4.633-7.294,10.089-5.666c0,0-4.808,7.723-10.037,7.379Z" transform="translate(-788.89 -368.6)"/><path class="b" d="M1111.319,479.222s4.668-9.185,9.086-7.586c0,0-3.367,7.061-9.205,9.135Z" transform="translate(-791.914 -347.744)"/><path class="b" d="M1111.587,452.774s4.8-7.23,9.3-6.346c0,0-3.924,7.332-9.763,8.438Z" transform="translate(-791.857 -329.97)"/><path class="b" d="M1114,423.26s3.72-8.114,6.743-8.17c0,0-1.786,8.056-6.492,9.547Z" transform="translate(-793.897 -307.829)"/><path class="b" d="M1116.5,398.534s4.135-8.216,7.242-8.234c0,0-2.115,7.026-7.1,8.955Z" transform="translate(-795.668 -290.272)"/><path class="b" d="M1118.63,370.389s3.093-6.8,5.655-7.569c0,0-1.546,8.286-5.313,9.372Z" transform="translate(-797.176 -270.81)"/><path class="b" d="M1122.939,339.59l6.912-10.53s-1.771,10.387-7.922,12.546Z" transform="translate(-799.513 -246.901)"/><path class="b" d="M1133.527,310.369s8.033-5.544,8.324-6.439c0,0-4.085,7.764-11.671,9.135Z" transform="translate(-805.356 -229.103)"/><path class="b" d="M1142.762,295.948s9.223-8.867,11.577-8.858a15.055,15.055,0,0,0-11.8,8.386Z" transform="translate(-814.11 -217.176)"/><path class="c" d="M1118.94,337.8l.335.044c1.733-13.565,4.26-21.591,7.114-22.575l-.111-.321C1123.252,316,1120.708,323.9,1118.94,337.8Z" transform="translate(-797.396 -236.907)"/><path class="c" d="M1110.2,423.266l.508.041c.108-1.266.19-2.562.245-3.854.484-11.228,1.234-21.539,2.22-29.268l-.292-.365c-.989,7.747-1.952,18.367-2.436,29.612C1110.39,420.716,1110.308,422.006,1110.2,423.266Z" transform="translate(-791.206 -289.932)"/><path class="c" d="M976.334,563.532a66.085,66.085,0,0,0,18.3-13.547,73.592,73.592,0,0,0,13.378-18.965c4.289-8.733,6.9-19.464,7.779-29.889l-.528.248c-1.97,23.4-12.622,39.39-21.092,48.1A65.4,65.4,0,0,1,976.06,562.9Z" transform="translate(-696.204 -368.765)"/><path class="d" d="M369.728,132.69H89.368a2.5,2.5,0,0,0-2.5,2.5v7.277H372.225v-7.277A2.5,2.5,0,0,0,369.728,132.69Z" transform="translate(-66.457 -107.826)"/><path class="e" d="M86.87,166.19V329.945a5.036,5.036,0,0,0,5.036,5.036H367.189a5.036,5.036,0,0,0,5.036-5.036V166.19Z" transform="translate(-66.457 -131.552)"/><circle class="f" cx="1.167" cy="1.167" r="1.167" transform="translate(23.765 28.511)"/><circle class="g" cx="1.167" cy="1.167" r="1.167" transform="translate(26.975 28.511)"/><circle class="h" cx="1.167" cy="1.167" r="1.167" transform="translate(30.184 28.511)"/><rect class="i" width="229.335" height="100.843" transform="translate(46.938 61.942)"/><rect class="d" width="225.833" height="98.62" transform="translate(48.688 62.707)"/><path class="b" d="M340.247,349.38a22.467,22.467,0,1,0,22.467,22.467A22.467,22.467,0,0,0,340.247,349.38Zm4.029,23.006v10.638h-7.942V372.386a6.58,6.58,0,1,1,7.942,0Z" transform="translate(-229.994 -261.292)"/><path class="i" d="M340.247,349.38a22.467,22.467,0,1,0,22.467,22.467A22.467,22.467,0,0,0,340.247,349.38Zm4.029,23.006v10.638h-7.942V372.386a6.58,6.58,0,1,1,7.942,0Z" transform="translate(-229.994 -261.292)"/><path class="b" d="M324.666,327.38a28.886,28.886,0,1,0,28.886,28.886,28.886,28.886,0,0,0-28.886-28.886Zm5.179,29.58v13.675H319.633V356.96a8.461,8.461,0,1,1,10.212,0Z" transform="translate(-214.413 -245.711)"/><rect class="e" width="93.368" height="9.92" transform="translate(151.101 106.765)"/><rect class="b" width="20.132" height="9.92" transform="translate(224.337 124.855)"/><path class="b" d="M556.011,424.922h-1.689l1.5-1.5a.149.149,0,0,0,0-.207.146.146,0,0,0-.207,0l-1.5,1.5v-1.692a.146.146,0,0,0-.146-.146.149.149,0,0,0-.146.146v1.692l-1.5-1.511a.146.146,0,0,0-.207,0,.149.149,0,0,0,0,.207l1.5,1.5h-1.692a.149.149,0,0,0-.146.146.146.146,0,0,0,.146.146h1.692l-1.5,1.5a.149.149,0,0,0,0,.207.152.152,0,0,0,.207,0l1.5-1.5V427.1a.146.146,0,1,0,.292,0v-1.689l1.5,1.5a.152.152,0,0,0,.207,0,.149.149,0,0,0,0-.207l-1.5-1.5h1.689a.142.142,0,1,0,0-.283Z" transform="translate(-395.719 -313.346)"/><path class="b" d="M577.011,424.922h-1.689l1.5-1.5a.149.149,0,0,0,0-.207.146.146,0,0,0-.207,0l-1.5,1.5v-1.692a.146.146,0,0,0-.146-.146.149.149,0,0,0-.146.146v1.692l-1.5-1.511a.146.146,0,0,0-.207,0,.149.149,0,0,0,0,.207l1.5,1.5h-1.692a.149.149,0,0,0-.146.146.146.146,0,0,0,.146.146h1.692l-1.5,1.5a.149.149,0,0,0,0,.207.152.152,0,0,0,.207,0l1.5-1.5V427.1a.146.146,0,0,0,.292,0v-1.689l1.5,1.5a.152.152,0,0,0,.207,0,.149.149,0,0,0,0-.207l-1.5-1.5h1.689a.142.142,0,1,0,0-.283Z" transform="translate(-410.591 -313.346)"/><path class="b" d="M598.011,424.922h-1.689l1.5-1.5a.149.149,0,0,0,0-.207.146.146,0,0,0-.207,0l-1.5,1.5v-1.692a.146.146,0,0,0-.146-.146.149.149,0,0,0-.146.146v1.692l-1.5-1.511a.146.146,0,0,0-.207,0,.149.149,0,0,0,0,.207l1.5,1.5h-1.692a.149.149,0,0,0-.146.146.146.146,0,0,0,.146.146h1.692l-1.5,1.5a.149.149,0,0,0,0,.207.152.152,0,0,0,.207,0l1.5-1.5V427.1a.146.146,0,0,0,.292,0v-1.689l1.5,1.5a.152.152,0,0,0,.207,0,.149.149,0,0,0,0-.207l-1.5-1.5h1.689a.142.142,0,1,0,0-.283Z" transform="translate(-425.464 -313.346)"/><path class="b" d="M619.011,424.922h-1.689l1.5-1.5a.149.149,0,0,0,0-.207.146.146,0,0,0-.207,0l-1.5,1.5v-1.692a.146.146,0,0,0-.146-.146.149.149,0,0,0-.146.146v1.692l-1.5-1.511a.146.146,0,0,0-.207,0,.149.149,0,0,0,0,.207l1.5,1.5h-1.692a.149.149,0,0,0-.146.146.146.146,0,0,0,.146.146h1.692l-1.5,1.5a.149.149,0,0,0,0,.207.152.152,0,0,0,.207,0l1.5-1.5V427.1a.146.146,0,0,0,.292,0v-1.689l1.5,1.5a.152.152,0,0,0,.207,0,.149.149,0,0,0,0-.207l-1.5-1.5h1.689a.142.142,0,1,0,0-.283Z" transform="translate(-440.337 -313.346)"/><path class="b" d="M640.011,424.922h-1.689l1.5-1.5a.149.149,0,0,0,0-.207.146.146,0,0,0-.207,0l-1.5,1.5v-1.692a.146.146,0,0,0-.146-.146.149.149,0,0,0-.146.146v1.692l-1.5-1.511a.146.146,0,0,0-.207,0,.149.149,0,0,0,0,.207l1.5,1.5h-1.692a.149.149,0,0,0-.146.146.146.146,0,0,0,.146.146h1.692l-1.5,1.5a.149.149,0,0,0,0,.207.152.152,0,0,0,.207,0l1.5-1.5V427.1a.146.146,0,0,0,.292,0v-1.689l1.5,1.5a.152.152,0,0,0,.207,0,.149.149,0,0,0,0-.207l-1.5-1.5h1.689a.142.142,0,1,0,0-.283Z" transform="translate(-455.209 -313.346)"/><path class="b" d="M661.011,424.922h-1.689l1.5-1.5a.149.149,0,0,0,0-.207.146.146,0,0,0-.207,0l-1.5,1.5v-1.692a.146.146,0,0,0-.146-.146.149.149,0,0,0-.146.146v1.692l-1.5-1.511a.146.146,0,0,0-.207,0,.149.149,0,0,0,0,.207l1.5,1.5h-1.692a.149.149,0,0,0-.146.146.146.146,0,0,0,.146.146h1.692l-1.5,1.5a.149.149,0,0,0,0,.207.152.152,0,0,0,.207,0l1.5-1.5V427.1a.146.146,0,0,0,.292,0v-1.689l1.5,1.5a.152.152,0,0,0,.207,0,.149.149,0,0,0,0-.207l-1.5-1.5h1.689a.142.142,0,1,0,0-.283Z" transform="translate(-470.082 -313.346)"/><path class="b" d="M682.011,424.922h-1.689l1.5-1.5a.149.149,0,0,0,0-.207.146.146,0,0,0-.207,0l-1.5,1.5v-1.692a.146.146,0,0,0-.146-.146.149.149,0,0,0-.146.146v1.692l-1.5-1.511a.146.146,0,0,0-.207,0,.149.149,0,0,0,0,.207l1.5,1.5h-1.692a.149.149,0,0,0-.146.146.146.146,0,0,0,.146.146h1.692l-1.5,1.5a.149.149,0,0,0,0,.207.152.152,0,0,0,.207,0l1.5-1.5V427.1a.146.146,0,0,0,.292,0v-1.689l1.5,1.5a.152.152,0,0,0,.207,0,.149.149,0,0,0,0-.207l-1.5-1.5h1.689a.142.142,0,1,0,0-.283Z" transform="translate(-484.955 -313.346)"/><path class="b" d="M703.011,424.922h-1.689l1.5-1.5a.149.149,0,0,0,0-.207.146.146,0,0,0-.207,0l-1.5,1.5v-1.692a.146.146,0,0,0-.146-.146.149.149,0,0,0-.146.146v1.692l-1.5-1.511a.146.146,0,0,0-.207,0,.149.149,0,0,0,0,.207l1.5,1.5h-1.692a.149.149,0,0,0-.146.146.146.146,0,0,0,.146.146h1.692l-1.5,1.5a.149.149,0,0,0,0,.207.152.152,0,0,0,.207,0l1.5-1.5V427.1a.146.146,0,0,0,.292,0v-1.689l1.5,1.5a.152.152,0,0,0,.207,0,.149.149,0,0,0,0-.207l-1.5-1.5h1.689a.142.142,0,1,0,0-.283Z" transform="translate(-499.828 -313.346)"/><path class="b" d="M724.011,424.922h-1.689l1.5-1.5a.149.149,0,0,0,0-.207.146.146,0,0,0-.207,0l-1.5,1.5v-1.692a.146.146,0,0,0-.146-.146.149.149,0,0,0-.146.146v1.692l-1.5-1.511a.146.146,0,0,0-.207,0,.149.149,0,0,0,0,.207l1.5,1.5h-1.692a.149.149,0,0,0-.146.146.146.146,0,0,0,.146.146h1.692l-1.5,1.5a.149.149,0,0,0,0,.207.152.152,0,0,0,.207,0l1.5-1.5V427.1a.146.146,0,0,0,.292,0v-1.689l1.5,1.5a.152.152,0,0,0,.207,0,.149.149,0,0,0,0-.207l-1.5-1.5h1.689a.142.142,0,1,0,0-.283Z" transform="translate(-514.7 -313.346)"/><path class="b" d="M745.011,424.922h-1.689l1.5-1.5a.149.149,0,0,0,0-.207.146.146,0,0,0-.207,0l-1.5,1.5v-1.692a.146.146,0,0,0-.146-.146.149.149,0,0,0-.146.146v1.692l-1.5-1.511a.146.146,0,0,0-.207,0,.149.149,0,0,0,0,.207l1.5,1.5h-1.692a.149.149,0,0,0-.146.146.146.146,0,0,0,.146.146h1.692l-1.5,1.5a.149.149,0,0,0,0,.207.152.152,0,0,0,.207,0l1.5-1.5V427.1a.146.146,0,0,0,.292,0v-1.689l1.5,1.5a.152.152,0,0,0,.207,0,.149.149,0,0,0,0-.207l-1.5-1.5h1.689a.142.142,0,1,0,0-.283Z" transform="translate(-529.573 -313.346)"/><path class="b" d="M766.011,424.922h-1.689l1.5-1.5a.149.149,0,0,0,0-.207.146.146,0,0,0-.207,0l-1.5,1.5v-1.692a.146.146,0,0,0-.146-.146.149.149,0,0,0-.146.146v1.692l-1.5-1.511a.146.146,0,0,0-.207,0,.149.149,0,0,0,0,.207l1.5,1.5h-1.692a.149.149,0,0,0-.146.146.146.146,0,0,0,.146.146h1.692l-1.5,1.5a.149.149,0,0,0,0,.207.152.152,0,0,0,.207,0l1.5-1.5V427.1a.146.146,0,0,0,.292,0v-1.689l1.5,1.5a.152.152,0,0,0,.207,0,.149.149,0,0,0,0-.207l-1.5-1.5h1.689a.142.142,0,1,0,0-.283Z" transform="translate(-544.446 -313.346)"/><path class="j" d="M829.743,491.914a5.219,5.219,0,0,0-.131-1.047,3.4,3.4,0,0,0-1.829-2.477,15.352,15.352,0,0,1-2.9-1.225c-.175-3.128.543-6.329-.239-9.36a23.8,23.8,0,0,1-.9-3.306c-.16-1.412.225-2.918-.338-4.219a4.164,4.164,0,0,0-2.466-2.13,13.136,13.136,0,0,0-3.288-.584c-1.4-.114-5.935-.651-7.516.6h0a1.65,1.65,0,0,0-.292.292h0a1.165,1.165,0,0,0-.093.152l-.015.023a1.191,1.191,0,0,0-.079.19h0a1.478,1.478,0,0,0-.05.219v.525c.02.263.058.525.058.785a1.686,1.686,0,0,1-.035.385,2.7,2.7,0,0,1-.484.945h0l-.053.076c-.032.047-.064.09-.093.137s-.052.082-.076.123-.047.067-.067.105a1.427,1.427,0,0,0-.076.149c0,.029-.032.055-.044.085a1.443,1.443,0,0,0-.088.245,1.63,1.63,0,0,0-.018.776,2.888,2.888,0,0,0,.4.919c.073.12.152.236.233.353l.2.277a6.3,6.3,0,0,0-.061.817,6.036,6.036,0,0,0,2.3,4.744,17.873,17.873,0,0,1-.037,3.7c-.026.257-.058.516-.093.773s-.061.426-.1.639a2.962,2.962,0,0,1-1.275-.1,6.022,6.022,0,0,0-.584-.225c-.849-.213-1.716.633-2.556.376a.342.342,0,0,1-.038.117,1.144,1.144,0,0,0-.583-.172,2.128,2.128,0,0,1-1.266-.727l-1.112-1.047a1.233,1.233,0,0,1-.193-.216,1.516,1.516,0,0,1-.134-.359,4.135,4.135,0,0,0-1.077-1.543.73.73,0,0,0-.318-.23.491.491,0,0,0-.146,0,1.266,1.266,0,0,0-.1-.117,2.751,2.751,0,0,0-.242-.245c-.531-.49-.584-.91-1.045-1.459a14.021,14.021,0,0,1-1.091-1.649c-.038-.306-.091-.621-.155-.94a12.091,12.091,0,0,0-.639-2.13l-.584-1.293-.067.067c-.423-.63-.875-.974-1.281-.893-.68.14-1.015,1.459-.907,3.183l.233,1.751a.54.54,0,0,0,.032.131,3.233,3.233,0,0,0-.064.63c0,.245.228.426.347.645a1.823,1.823,0,0,1,.292.995c-.014.125-.052.245-.058.368a1.416,1.416,0,0,0,.274.759l1.459,2.451.292.514.018.023a1.246,1.246,0,0,0,.391.449,5.344,5.344,0,0,0,.481,1.771c.05.111.105.216.163.321a10.316,10.316,0,0,0,1.377,1.789l.694.779c.686.764,1.371,1.532,2.115,2.238a2.834,2.834,0,0,0,.945.662,1.071,1.071,0,0,0,1.062-.155v1.085a.61.61,0,0,1,.461.96,24.058,24.058,0,0,1-2.159,4.569,9.727,9.727,0,0,1,1.809,1.38,8.132,8.132,0,0,1,.942,1.275c.026.216.047.429.058.642.216,3.478-1.129,6.93-2.334,10.244a7.979,7.979,0,0,0-.7,2.9,5.671,5.671,0,0,0-.654.47,4.327,4.327,0,0,1,.12,1.85,3.278,3.278,0,0,1-.242,1.167,8.22,8.22,0,0,1-.42.75,11.132,11.132,0,0,0-1.074,4.441c-.09.919.265,2.042-.152,2.865a11.722,11.722,0,0,0-1.459,4.488,4.5,4.5,0,0,1-.134,1.047c-.09.292-.251.54-.333.826a3.533,3.533,0,0,0-.058,1.167,11.169,11.169,0,0,1-.613,4.117,5.6,5.6,0,0,0-.481,3.227,4.548,4.548,0,0,0-1.234,2.711,4.274,4.274,0,0,1-.093.773,3.763,3.763,0,0,1-.35.744,6.512,6.512,0,0,0-.794,3.5,9.74,9.74,0,0,0-1.573,4.108c-.26,1.456-.373,2.938-.706,4.377a40.791,40.791,0,0,0-1.4,5.774,4.067,4.067,0,0,0-1.535,2.88,12.821,12.821,0,0,1-.674,3.288c-.239.531-.584,1.007-.811,1.549a7.123,7.123,0,0,0-.35,1.333,5.2,5.2,0,0,0-.09,2.188,3.3,3.3,0,0,1-.855.651c.047-.181.085-.362.117-.546-.753.683-2.118.444-2.719,1.263a1.231,1.231,0,0,0,.292,1.689,2.334,2.334,0,0,0,.6.26,9.65,9.65,0,0,0,4.458.689,1.329,1.329,0,0,0,.5-.161,1.623,1.623,0,0,0,.47-.543q.337-.534.671-1.068a13.86,13.86,0,0,0,1.637.382c.055.467.1.934.117,1.4.292.058.683.076.82-.2a.709.709,0,0,0,.05-.324c0-.207.029-.481.047-.761h.058a5.544,5.544,0,0,0,2.582-.522c-.312-2.585.718-5.112,1.611-7.557.942-2.573,1.751-5.194,2.565-7.814.584-1.844,1.228-3.63,1.8-5.477q1.079-3.5,2.168-7c.315-1.027.633-2.042.995-3.064a47.716,47.716,0,0,1,2.7-6.019c.292-.551.583-1.1.823-1.669.292-.7.5-1.427.732-2.147a33.257,33.257,0,0,1,1.832-4.312c.02-.038.035-.073.055-.108.236.966.473,1.946.63,2.918a11.087,11.087,0,0,1,.05,3.606,11.891,11.891,0,0,0-.373,2.445,15.1,15.1,0,0,0,.954,3.277,12.47,12.47,0,0,1,.327,2.509c.082,1.313.794,2.786.292,4-1.561,3.854-.805,8.208-1.7,12.255-.458,2.078-1.862,4.029-1.751,6.154q.117,2.261.4,4.511a4.294,4.294,0,0,0,.365,1.368,5.037,5.037,0,0,0,.4.654c-.128.05-.236.181-.33.458a1.8,1.8,0,0,0,.648,2.042,2.838,2.838,0,0,0,.843.292,4.442,4.442,0,0,0,1.22.169,2.835,2.835,0,0,0,.382-.047,13.892,13.892,0,0,0,1.38.5,3,3,0,0,0,.038.359.447.447,0,0,0,.152.33.455.455,0,0,0,.233.041H819v-.4a1.3,1.3,0,0,0,1.007-.327,1.558,1.558,0,0,0,.292-.607q.648-2.2,1.287-4.4a14.057,14.057,0,0,0,.627-5.019c-.563-5.377.674-10.772.271-16.164a38.727,38.727,0,0,1,.5-9.7c.131-.724.292-1.459.35-2.18.128-1.36-.029-2.734.067-4.085.032-.473.1-.942.155-1.412a67.821,67.821,0,0,0,.627-8.8,27.7,27.7,0,0,0-.181-2.918,1.666,1.666,0,0,0,.8-.467,1.984,1.984,0,0,0,.19-1.246,9.031,9.031,0,0,1,.785-2.982,35.441,35.441,0,0,0,1.1-4.1,14.32,14.32,0,0,0,.49-3.428q0-.175-.017-.35a.9.9,0,0,0,.268-.292,1.7,1.7,0,0,0,.14-.54c.105-.744.213-1.491.318-2.238q.117-.8.231-1.6l.928-6.474c.079-.563.16-1.123.239-1.684l.242-1.675c.026-.2.055-.4.076-.584C830.5,494.856,829.819,493.268,829.743,491.914ZM822,516.155a5.334,5.334,0,0,1-.584-2.535h-.032a1.3,1.3,0,0,0-.038-.823c-.09-.213-.248-.394-.344-.607a2.224,2.224,0,0,1-.157-.817,22.27,22.27,0,0,1,.417-5.293c.038-.2.079-.411.117-.616a1.524,1.524,0,0,0,.333-.26,2.365,2.365,0,0,0,.376-.584c.33-.662.63-1.336.907-2.022.091-.222.222-.478.446-.534-.047,1.707.128,3.449-.566,4.989a3.155,3.155,0,0,0-.292.788c-.064.435.117.875.053,1.307-.032.225-.128.432-.166.654a.639.639,0,0,0,.169.619.511.511,0,0,0,.125.064c-.018.117-.032.236-.044.35-.023.239-.035.464-.05.6a18.823,18.823,0,0,0-.079,2.147c0,.773.029,1.546.018,2.334a1.585,1.585,0,0,1-.111.662,1.15,1.15,0,0,1-.222.292A7.578,7.578,0,0,0,822,516.155Z" transform="translate(-561.206 -344.844)"/><ellipse class="k" cx="1.646" cy="4.66" rx="1.646" ry="4.66" transform="matrix(0.98, -0.201, 0.201, 0.98, 234.284, 128.657)"/><path class="l" d="M878.179,836.89a1.767,1.767,0,0,0,.648,2.022,2.884,2.884,0,0,0,.837.292,4.417,4.417,0,0,0,1.217.166c.5-.023.989-.222,1.494-.292a.233.233,0,0,1,.172.023.248.248,0,0,1,.064.2,7.726,7.726,0,0,0,.064.858.441.441,0,0,0,.152.33.455.455,0,0,0,.233.041h1.581a15.423,15.423,0,0,0-.452-4.126.92.92,0,0,0-.117-.292.966.966,0,0,0-.5-.292,2.821,2.821,0,0,0-1.223-.213,3.582,3.582,0,0,0-1.371.671,2.089,2.089,0,0,1-1.555.376C878.891,836.519,878.451,836.079,878.179,836.89Z" transform="translate(-626.819 -605.651)"/><path class="m" d="M794.065,834.154a4.377,4.377,0,0,1-1.6,1.085l-.268.128a.187.187,0,0,0-.091.073.158.158,0,0,0,.029.131,1.888,1.888,0,0,0,2.142.779,1.135,1.135,0,0,0,.47-.245,1.541,1.541,0,0,0,.362-.94,1.924,1.924,0,0,0-.044-1.077C794.664,833.177,794.515,833.591,794.065,834.154Z" transform="translate(-565.924 -604.196)"/><path class="l" d="M795.792,838.157a.709.709,0,0,1-.05.324c-.137.268-.519.254-.817.2a19.65,19.65,0,0,0-.359-2.947c-.566-.026-.974.511-1.278.992l-.782,1.24a1.617,1.617,0,0,1-.467.543,1.384,1.384,0,0,1-.5.161,9.567,9.567,0,0,1-4.444-.689,2.353,2.353,0,0,1-.6-.257,1.234,1.234,0,0,1-.292-1.686c.6-.817,1.961-.584,2.714-1.26a6.792,6.792,0,0,1-.385,1.392c1.007-.152,1.684-1.074,2.495-1.689a1.535,1.535,0,0,1,.712-.339,1.567,1.567,0,0,1,.584.061,6.845,6.845,0,0,1,2.568,1.263,2.768,2.768,0,0,1,.919.957A7.088,7.088,0,0,1,795.792,838.157Z" transform="translate(-561.587 -604.605)"/><circle class="k" cx="6.028" cy="6.028" r="6.028" transform="translate(248.248 125.228)"/><path class="l" d="M913.918,614.7a14.3,14.3,0,0,1-.487,3.411,35.177,35.177,0,0,1-1.1,4.085,8.993,8.993,0,0,0-.779,2.976,1.979,1.979,0,0,1-.193,1.243,1.814,1.814,0,0,1-.852.487,1.065,1.065,0,0,0-.718.639,4.511,4.511,0,0,1-.607-1.336q-.785-2.4-1.459-4.835a.627.627,0,0,1,.041-.583.722.722,0,0,1,.254-.143,2.627,2.627,0,0,0,.808-.519,1.185,1.185,0,0,0,.269-.347,1.572,1.572,0,0,0,.114-.659c0-.773,0-1.544-.02-2.317a19.365,19.365,0,0,1,.082-2.139c0-.14.026-.365.05-.6.044-.458.131-.989.379-1.167.371-.248,1.479.085,1.9.143.724.1,1.459.216,2.165.353A5.779,5.779,0,0,1,913.918,614.7Z" transform="translate(-647.767 -447.852)"/><path class="l" d="M829.646,505.8c-.233.467-.794.691-1.225.986l-1.479,1.015a.986.986,0,0,1-.732.251.963.963,0,0,1-.546-.511.1.1,0,0,0,0-.023l-.306-.514-1.459-2.445a1.392,1.392,0,0,1-.271-.753c0-.125.044-.242.055-.368a1.765,1.765,0,0,0-.292-.992c-.117-.219-.35-.4-.344-.645a2.334,2.334,0,0,1,.163-.942,1.908,1.908,0,0,1,.639-.683c.137-.1.277-.193.423-.292a.835.835,0,0,1,.254-.117c.242-.05.481.152.727.16,1.053.706,1.459,2.042,2.287,3.005.467.549.514.969,1.042,1.459.085.076.166.158.245.242a1.7,1.7,0,0,1,.263.379C829.185,505.268,829.766,505.563,829.646,505.8Z" transform="translate(-587.835 -367.797)"/><path class="m" d="M874.534,507.232a5.431,5.431,0,0,1,.648,2.938,1.834,1.834,0,0,1-.254.773,2.5,2.5,0,0,1-2.069.8,1.22,1.22,0,0,0-.9.292.817.817,0,0,0,.055,1,2.252,2.252,0,0,0,.893.584,7.9,7.9,0,0,0,3.843.852c.613-.058,1.208-.236,1.818-.327a19.085,19.085,0,0,1,2-.111c.794-.029,1.584-.108,2.375-.187l2.095-.207a.467.467,0,0,0,.312-.114c.155-.181-.044-.446-.236-.584-1.112-.823-2.527-1.389-3.16-2.626a15.454,15.454,0,0,1-.6-1.908,16.028,16.028,0,0,1-.694-1.841,12.2,12.2,0,0,1-.1-1.7,2.279,2.279,0,0,0-.583-1.552,2.433,2.433,0,0,0-1.587-.511,5.138,5.138,0,0,0-3.869,1.255c-.266.266-.493.584-.767.823s-.648.309-.467.624.537.511.729.788A6.712,6.712,0,0,1,874.534,507.232Z" transform="translate(-622.377 -369.945)"/><path class="l" d="M871.085,528.884a33.151,33.151,0,0,1-1.786,6.574,24.764,24.764,0,0,0-1.05,2.947c-.225.9-.181,1.873-.388,2.781-.257,1.129-.514,2.261-.721,3.4a22.289,22.289,0,0,0-.414,5.281,2.208,2.208,0,0,0,.158.814c.1.21.251.391.341.607a1.459,1.459,0,0,1-.082,1.167,3.379,3.379,0,0,1-.6.91c-2.719.811-5.628.546-8.462.718-2.611.157-5.252.694-7.825.248a6.2,6.2,0,0,1,.613-3.528c1.211-3.306,2.55-6.749,2.334-10.212a10.565,10.565,0,0,0-.137-1.2,15.975,15.975,0,0,1,.776-7.373,12.652,12.652,0,0,0,.333-4.6,8.415,8.415,0,0,1-.02-1.508,2.652,2.652,0,0,1,.549-1.409c0-.02.026-.041.041-.061a.4.4,0,0,1,.219,0h0a.187.187,0,0,0,.146,0l.032-.02a.073.073,0,0,1,.085,0c.067.041.105.181.251.207a5.794,5.794,0,0,0,.651.061,3.5,3.5,0,0,1,.776.111h.035a2.279,2.279,0,0,0,1.132-.1,3.012,3.012,0,0,0,.694-.268c.064-.07.467-.134.549-.184.265-.16.207-.913.263-1.223a3.365,3.365,0,0,1,.219-.9,1.541,1.541,0,0,1,1.249-.727,6.644,6.644,0,0,1,1.5.134c1.088.155,2.2.128,3.271.379a2.437,2.437,0,0,0,1.616.07c.134.032.155.149.155.292a1.874,1.874,0,0,1-.082.4c-.187.805.446,1.546,1.03,2.13a3.3,3.3,0,0,0,.861.686c.292.134.584.19.875.336a1.593,1.593,0,0,1,.584.534,2.23,2.23,0,0,1,.333.849A5.08,5.08,0,0,1,871.085,528.884Z" transform="translate(-607.043 -383.109)"/><path class="n" d="M877.749,536.19a33.153,33.153,0,0,1-1.786,6.574,24.77,24.77,0,0,0-1.05,2.947c-.225.9-.181,1.873-.388,2.781-.257,1.129-.514,2.261-.721,3.4-.061.035-.125.067-.19.1a4.481,4.481,0,0,1-1.144.368,7,7,0,0,1-2.136-.07l-4.164-.557c-1.663-.225-3.434-.5-4.668-1.622a9.964,9.964,0,0,1-1.628-2.223,10.565,10.565,0,0,0-.137-1.2,15.973,15.973,0,0,1,.776-7.373,12.655,12.655,0,0,0,.333-4.6,8.409,8.409,0,0,1-.02-1.508,2.653,2.653,0,0,1,.549-1.409,2.069,2.069,0,0,1,.26-.058h0a1.3,1.3,0,0,1,.178-.023h.085a1.273,1.273,0,0,1,.292.035,5.262,5.262,0,0,1,.583.225h.035a2.236,2.236,0,0,0,.776.111c.385,0,.782-.061,1.167-.088a2.153,2.153,0,0,1,1.383.248,8.261,8.261,0,0,1,.77.7,3.308,3.308,0,0,0,.972.528,10.326,10.326,0,0,0,7.767-.163,1.519,1.519,0,0,1,.779-.2,1.459,1.459,0,0,1,.56.239c.175.1.347.2.525.292a2.227,2.227,0,0,1,.333.849A5.076,5.076,0,0,1,877.749,536.19Z" transform="translate(-613.708 -390.415)"/><path class="b" d="M874.174,532.9a15.569,15.569,0,0,1-3.326-1.459,1.492,1.492,0,0,0-.56-.239,1.567,1.567,0,0,0-.782.2,10.32,10.32,0,0,1-7.764.163,3.377,3.377,0,0,1-.972-.528,8.738,8.738,0,0,0-.77-.7c-.96-.622-2.288.108-3.361-.292a5.944,5.944,0,0,0-.584-.225c-.849-.213-1.713.633-2.547.376a14.2,14.2,0,0,0-.686,2.6,28.378,28.378,0,0,0-.189,3.07c0,.616-.029,1.231,0,1.847a.606.606,0,0,1,.461.957,23.924,23.924,0,0,1-2.153,4.555,9.9,9.9,0,0,1,1.8,1.377c1.021,1.08,1.523,2.594,2.626,3.592,1.243,1.123,3.014,1.4,4.668,1.619l4.164.557a7.116,7.116,0,0,0,2.139.073,4.5,4.5,0,0,0,1.141-.371,2.039,2.039,0,0,0,.636-.42,2.333,2.333,0,0,0,.376-.583c.33-.659.63-1.333.907-2.016.1-.242.242-.525.5-.546,1.546-1.395,3.005-2.824,4.552-4.219a10.086,10.086,0,0,0,1.66-1.751c.767-1.135.07-2.743,0-4.114a5.189,5.189,0,0,0-.131-1.042A3.343,3.343,0,0,0,874.174,532.9Z" transform="translate(-607.591 -389.056)"/><path class="n" d="M836,517.5c-.233.467-.794.692-1.225.986l-1.479,1.015a.987.987,0,0,1-.732.251.963.963,0,0,1-.546-.511v-.21a1.958,1.958,0,0,1,.093-.7,2.173,2.173,0,0,1,.654-.84,5.35,5.35,0,0,1,1.917-1.167.656.656,0,0,1,.35-.035.458.458,0,0,1,.128.055,1.691,1.691,0,0,1,.263.379C835.536,516.971,836.117,517.265,836,517.5Z" transform="translate(-594.186 -379.499)"/><path class="b" d="M840.359,521.038a2.125,2.125,0,0,1-1.263-.724l-1.106-1.027a1.033,1.033,0,0,1-.193-.216,1.52,1.52,0,0,1-.134-.359,4.115,4.115,0,0,0-1.074-1.541.7.7,0,0,0-.318-.228.64.64,0,0,0-.353.035A5.336,5.336,0,0,0,834,518.146a2.18,2.18,0,0,0-.654.84,1.941,1.941,0,0,0-.093.7,5.358,5.358,0,0,0,.508,2.229c.05.108.105.216.163.321a10.1,10.1,0,0,0,1.371,1.783l.694.776c.683.764,1.366,1.529,2.107,2.232a2.782,2.782,0,0,0,.945.659,1.056,1.056,0,0,0,1.085-.175,1.57,1.57,0,0,0,.309-.554,10.914,10.914,0,0,0,.9-3.638,13.754,13.754,0,0,0-.064-1.509C841.231,521.277,840.855,521.07,840.359,521.038Z" transform="translate(-595.064 -379.957)"/><path class="o" d="M833.194,638.364a67.408,67.408,0,0,1-.624,8.774c-.058.47-.122.94-.155,1.409-.1,1.363.061,2.731-.067,4.085-.067.732-.219,1.459-.347,2.174a38.65,38.65,0,0,0-.5,9.672c.4,5.377-.832,10.758-.271,16.121a13.032,13.032,0,0,1-.172,3.119,13.226,13.226,0,0,1-.452,1.885q-.639,2.191-1.284,4.377a1.518,1.518,0,0,1-.292.607,1.383,1.383,0,0,1-1.094.324,12.624,12.624,0,0,1-4.8-1.488,1.671,1.671,0,0,1-.481-.292c-.318-.33-.292-.849-.432-1.284a12.219,12.219,0,0,0-.735-1.29,4.209,4.209,0,0,1-.318-1.328q-.292-2.241-.4-4.5c-.111-2.118,1.29-4.067,1.751-6.127.875-4.05.134-8.391,1.689-12.234.49-1.214-.222-2.684-.292-3.991a12.657,12.657,0,0,0-.327-2.5,15.515,15.515,0,0,1-.951-3.268,12,12,0,0,1,.37-2.436,10.95,10.95,0,0,0-.05-3.6c-.155-.98-.391-1.961-.627-2.918l-.053.108a32.978,32.978,0,0,0-1.829,4.3c-.233.715-.438,1.444-.729,2.139-.239.583-.534,1.117-.823,1.666a47.855,47.855,0,0,0-2.7,6c-.362,1.01-.68,2.042-.995,3.055l-2.162,7c-.583,1.841-1.223,3.621-1.794,5.459-.808,2.626-1.616,5.229-2.556,7.8-.875,2.436-1.917,4.96-1.6,7.534a5.544,5.544,0,0,1-2.576.522,15.084,15.084,0,0,1-4.377-1.062,3.4,3.4,0,0,1-1.511-.9,3.575,3.575,0,0,1-.292-2.956,7.136,7.136,0,0,1,.35-1.33c.222-.537.584-1.013.811-1.544a12.951,12.951,0,0,0,.668-3.277,4.043,4.043,0,0,1,1.529-2.874,41.512,41.512,0,0,1,1.4-5.76c.333-1.438.444-2.918.706-4.377a9.614,9.614,0,0,1,1.567-4.1,6.5,6.5,0,0,1,.794-3.5,3.831,3.831,0,0,0,.347-.744,4.281,4.281,0,0,0,.093-.77,4.554,4.554,0,0,1,1.231-2.7,5.488,5.488,0,0,1,.479-3.21,11.151,11.151,0,0,0,.613-4.105,3.6,3.6,0,0,1,.055-1.167c.082-.292.242-.54.335-.82a4.664,4.664,0,0,0,.131-1.047,12.116,12.116,0,0,1,1.459-4.476c.42-.823.064-1.94.152-2.856a11.04,11.04,0,0,1,1.074-4.426c.14-.251.292-.49.417-.75a3.245,3.245,0,0,0,.242-1.167,4.3,4.3,0,0,0-.12-1.844,9.455,9.455,0,0,1,5.722-1.751,35.665,35.665,0,0,0,6.072-.336c.583-.131,1.167-.312,1.783-.4a11.532,11.532,0,0,1,4.2.429,5,5,0,0,0,.583,2.53A27.154,27.154,0,0,1,833.194,638.364Z" transform="translate(-570.218 -456.435)"/><path class="n" d="M884.872,673.29l-3.352,7.539c-.155-.98-.391-1.961-.627-2.918l-.052.108v-.158l1.827-4.018Z" transform="translate(-628.767 -490.693)"/><path class="n" d="M917.872,614.7a1.26,1.26,0,0,1-.665.248,3.237,3.237,0,0,1-1.091-.149l-2.626-.657a1.292,1.292,0,0,1-.239-.085c.044-.458.131-.989.379-1.167.37-.248,1.479.085,1.9.143.724.1,1.459.216,2.165.353A5.777,5.777,0,0,1,917.872,614.7Z" transform="translate(-651.721 -447.852)"/><path class="b" d="M919.431,557.549c.055.242.134.481.181.727a5.543,5.543,0,0,1-.061,1.806l-.239,1.669-.239,1.678-.925,6.457-.228,1.6-.321,2.232a1.6,1.6,0,0,1-.14.537,1.118,1.118,0,0,1-.913.54,3.311,3.311,0,0,1-1.091-.149l-2.626-.659a.823.823,0,0,1-.321-.131.633.633,0,0,1-.169-.616c.038-.222.134-.429.166-.651.064-.432-.117-.875-.052-1.3a3.241,3.241,0,0,1,.292-.785c.875-1.934.368-4.193.665-6.294a9.541,9.541,0,0,1,2.025-4.505,12.934,12.934,0,0,1,2.235-2.194,4.5,4.5,0,0,1,1.258-.875C919.455,556.519,919.344,557.181,919.431,557.549Z" transform="translate(-651.06 -408.063)"/><path class="o" d="M861.982,470.075c-.193.613.108,1.287-.029,1.911-.149.689-.8,1.167-.98,1.859-.292,1.053.6,2.013,1.255,2.889,2.422,3.25,2.1,7.75,1.275,11.715a60.484,60.484,0,0,1-2.757,9.337,7.156,7.156,0,0,1-1.485,2.606,7.68,7.68,0,0,1,4.114-.4c1.7.473,3.175,2.127,4.9,1.751,1.039-.23,1.768-1.153,2.7-1.663,1.751-.942,3.86-.35,5.812-.047a2.281,2.281,0,0,0,1.269-.064,2.109,2.109,0,0,0,.77-.709,7.194,7.194,0,0,0,1.5-3.881,4.977,4.977,0,0,0-1.433-3.831,8.2,8.2,0,0,1-1.228-1.167,3.624,3.624,0,0,1-.481-1.768c-.23-3.21.551-6.486-.254-9.591a23.658,23.658,0,0,1-.9-3.3c-.161-1.409.222-2.918-.339-4.207a4.126,4.126,0,0,0-2.46-2.124,13.473,13.473,0,0,0-3.28-.584C868.36,468.674,862.65,467.989,861.982,470.075Z" transform="translate(-613.484 -345.722)"/><g class="p" transform="translate(245.776 123.685)"><path d="M867.143,498.977a60.38,60.38,0,0,1-2.743,9.3c.2-.4.371-.82.531-1.237a60.175,60.175,0,0,0,2.757-9.337c.831-3.968,1.15-8.461-1.272-11.715a4.577,4.577,0,0,1-1.307-2.527,3.112,3.112,0,0,0-.5.916c-.292,1.053.6,2.013,1.255,2.889C868.289,490.512,867.971,495.011,867.143,498.977Z" transform="translate(-862.9 -479.935)"/><path d="M868.424,473.665a2.84,2.84,0,0,0,.514-.983,5,5,0,0,0-.035-1.3,1.4,1.4,0,0,0-.484.668A5.773,5.773,0,0,0,868.424,473.665Z" transform="translate(-865.696 -471.38)"/><path d="M879.378,566.8a2.1,2.1,0,0,1-.77.706,2.229,2.229,0,0,1-1.269.064c-1.952-.292-4.085-.893-5.812.05-.937.508-1.663,1.43-2.7,1.663-1.724.385-3.195-1.269-4.9-1.751a6.84,6.84,0,0,0-3.7.292,5.1,5.1,0,0,1-.966,1.395,7.68,7.68,0,0,1,4.114-.4c1.7.473,3.174,2.127,4.9,1.751,1.039-.231,1.768-1.152,2.7-1.663,1.751-.942,3.86-.35,5.812-.047a2.282,2.282,0,0,0,1.269-.064,2.109,2.109,0,0,0,.77-.709,7.842,7.842,0,0,0,1.208-2.311A8.475,8.475,0,0,1,879.378,566.8Z" transform="translate(-859.26 -538.237)"/></g></g></svg>