<svg xmlns="http://www.w3.org/2000/svg" width="301.954" height="210.085" viewBox="0 0 301.954 210.085"><defs><style>.a{fill:#e6e6e6;}.b{fill:#2f2e41;}.c{fill:#3f3d56;}.d{fill:#fff;}.e{fill:#0b70a5;}.f{fill:#8f6d6d;}.g{fill:#7e6363;}</style></defs><ellipse class="a" cx="60.162" cy="4.569" rx="60.162" ry="4.569" transform="translate(0 200.947)"/><path class="b" d="M324.272,244.466c10.47-4.453,23.511-1.632,36.246.327.118-2.371,1.555-5.258.05-6.912-1.828-2.01-1.66-4.122-.56-6.246,2.813-5.432-1.217-11.211-5.287-16.017a9.013,9.013,0,0,0-7.522-3.157l-7.538.538a9.028,9.028,0,0,0-8.016,6.453h0c-1.8,2.448-2.763,4.889-2.157,7.318-2.7,1.842-3.149,4.067-1.938,6.574a3.779,3.779,0,0,1-.047,4.61,21.283,21.283,0,0,0-3.164,6.285Z" transform="translate(-278.285 -197.852)"/><path class="b" d="M619.048,628.5H405.655a7.155,7.155,0,0,1-7.155-7.155h0q116.032-13.485,227.7,0h0a7.155,7.155,0,0,1-7.155,7.155Z" transform="translate(-324.249 -446.881)"/><path class="c" d="M626.2,386.319,398.5,385.9l26.39-44.4.126-.21V243.422a9.044,9.044,0,0,1,9.046-9.045H589.379a9.044,9.044,0,0,1,9.045,9.046v98.534Z" transform="translate(-324.249 -211.438)"/><path class="d" d="M486.559,250.957a2.95,2.95,0,0,0-2.946,2.946v89.229a2.95,2.95,0,0,0,2.946,2.946H643.552a2.95,2.95,0,0,0,2.946-2.946V253.9a2.95,2.95,0,0,0-2.946-2.946Z" transform="translate(-376.953 -221.705)"/><path class="b" d="M477.8,531.718a1.266,1.266,0,0,0-1.147.735l-8.132,17.678a1.263,1.263,0,0,0,1.147,1.79h171a1.263,1.263,0,0,0,1.129-1.828l-8.839-17.677a1.256,1.256,0,0,0-1.129-.7Z" transform="translate(-367.537 -395.559)"/><circle class="d" cx="1.894" cy="1.894" r="1.894" transform="translate(185.577 23.991)"/><path class="b" d="M646.33,593.619a1.265,1.265,0,0,0-1.219.934l-2.04,7.576a1.262,1.262,0,0,0,1.219,1.591h38.791a1.262,1.262,0,0,0,1.193-1.676l-2.622-7.576a1.263,1.263,0,0,0-1.193-.85Z" transform="translate(-475.666 -433.89)"/><path class="b" d="M437.84,337.135v1.683H264.306l.131-.21v-1.473Z" transform="translate(-163.665 -208.763)"/><circle class="e" cx="29.462" cy="29.462" r="29.462" transform="translate(239.873 0)"/><path class="d" d="M900.453,255.791H876.041a1.685,1.685,0,0,1-1.684-1.684V239.376a1.685,1.685,0,0,1,1.684-1.684h24.412a1.685,1.685,0,0,1,1.684,1.684v14.731A1.685,1.685,0,0,1,900.453,255.791Zm-24.412-16.415v14.731h24.413V239.376Z" transform="translate(-618.912 -213.491)"/><path class="d" d="M906.09,217.473H890.938v-6.734c0-4.878,3.186-8.418,7.576-8.418s7.576,3.54,7.576,8.418Zm-13.469-1.684h11.785v-5.051c0-3.965-2.423-6.734-5.892-6.734s-5.893,2.769-5.893,6.734Z" transform="translate(-629.179 -191.588)"/><circle class="d" cx="1.684" cy="1.684" r="1.684" transform="translate(267.652 31.146)"/><path class="a" d="M655.856,365.032H534.526a2.249,2.249,0,0,1-2.247-2.247v-30.1a2.249,2.249,0,0,1,2.247-2.247h121.33a2.249,2.249,0,0,1,2.247,2.247v30.1A2.249,2.249,0,0,1,655.856,365.032ZM534.526,331.34a1.35,1.35,0,0,0-1.348,1.348v30.1a1.35,1.35,0,0,0,1.348,1.348h121.33a1.35,1.35,0,0,0,1.348-1.348v-30.1a1.35,1.35,0,0,0-1.348-1.348Z" transform="translate(-407.089 -270.924)"/><circle class="a" cx="9.152" cy="9.152" r="9.152" transform="translate(137.137 66.506)"/><path class="a" d="M640.722,356.8a1.525,1.525,0,1,0,0,3.051h71.912a1.525,1.525,0,1,0,0-3.051Z" transform="translate(-473.295 -287.249)"/><path class="a" d="M640.722,380.842a1.525,1.525,0,1,0,0,3.051h30.944a1.525,1.525,0,1,0,0-3.051Z" transform="translate(-473.295 -302.133)"/><path class="f" d="M430.086,361.2l-22.429,11.924-.284-9.937A66.425,66.425,0,0,0,428.1,356.37l2.346-5.8a3.929,3.929,0,0,1,6.677-1.02h0a3.929,3.929,0,0,1-.346,5.357Z" transform="translate(-329.744 -281.871)"/><path class="b" d="M322.846,538.813h0a4.407,4.407,0,0,1,.559-3.565l4.927-7.561a8.61,8.61,0,0,1,11.17-2.947h0c-2.071,3.525-1.782,6.617.715,9.3A44.791,44.791,0,0,0,329.58,541.3a4.407,4.407,0,0,1-6.734-2.482Z" transform="translate(-277.306 -390.641)"/><path class="b" d="M402.482,483.437h0a8.454,8.454,0,0,1-7.185,4.1l-32.732.248-1.419-8.233,14.479-4.259-12.208-9.369,13.344-15.615L401,472.9A8.454,8.454,0,0,1,402.482,483.437Z" transform="translate(-301.118 -345.151)"/><path class="b" d="M327.7,502.808h-7.666c-6.883-47.177-13.888-94.486,6.814-112.144l24.416,3.975-3.123,20.725-13.628,15.615Z" transform="translate(-271.368 -308.215)"/><path class="b" d="M343.455,691.189h0a4.407,4.407,0,0,1-3.565-.559l-8.323-1.119a8.61,8.61,0,0,1-2.948-11.17h0c3.525,2.07,6.617,1.782,9.3-.716,1.9,3.833,5.027,3.6,8.014,6.829a4.407,4.407,0,0,1-2.482,6.734Z" transform="translate(-280.381 -485.909)"/><path class="g" d="M376.087,276.045l-14.2-3.407c2.358-4.826,2.552-10.2,1.42-15.9l9.653-.284A74.11,74.11,0,0,0,376.087,276.045Z" transform="translate(-301.58 -225.109)"/><path class="e" d="M366.195,340.4c-10.334,7.042-17.635.241-23.207-10.252.774-6.421-.479-14.1-2.8-22.453a15.283,15.283,0,0,1,9.331-18.43h0l12.208,5.11c10.366,8.45,12.406,17.6,8.517,27.255Z" transform="translate(-287.786 -245.424)"/><path class="f" d="M289.893,307.612l-11.356,5.962L298.694,325.5l2.8,6.919a3.669,3.669,0,0,1-2.2,4.848h0a3.669,3.669,0,0,1-4.859-3.254l-.284-4.822-25.62-8.455a5.991,5.991,0,0,1-3.759-3.66h0a5.991,5.991,0,0,1,2.248-6.969l20.6-14.134Z" transform="translate(-241.222 -249.579)"/><path class="e" d="M336.214,303.873c-4.736-2.076-9.043.179-14.479,1.987l-.852-15.047c5.4-2.877,10.544-3.653,15.331-1.42Z" transform="translate(-276.187 -244.705)"/><circle class="f" cx="9.063" cy="9.063" r="9.063" transform="translate(56.63 20.672)"/><path class="b" d="M371.681,236c-8.973.879-15.811-.589-20.181-4.767v-3.365h19.419Z" transform="translate(-295.145 -207.406)"/></svg>